# This file uses centimeters as units for non-parametric coordinates.

mtllib JordanPrism1.mtl
g default
v 0.000000 0.326985 0.478149
v 0.391433 0.274708 0.000000
v 0.000000 1.002780 0.000000
v -0.391433 0.274704 0.000000
v 0.000000 -1.277488 0.000001
v 0.000000 0.326985 -0.478148
v 0.000000 -0.804404 0.280116
v -0.115415 -0.828559 0.000001
v 0.000000 -0.804404 -0.280115
v 0.115415 -0.828557 0.000001
v 0.115415 0.788106 0.000000
v 0.000000 0.824420 -0.139109
v -0.115415 0.788105 0.000000
v 0.000000 0.824420 0.139109
vt 0.500000 0.500000
vt 0.750000 0.500000
vt 0.500000 1.000000
vt 0.250000 0.500000
vt 0.500000 1.000000
vt 1.000000 0.500000
vt 1.250000 0.500000
vt 0.500000 0.852573
vt 0.426287 0.852573
vt 0.721140 0.852573
vt 0.647427 0.852573
vt 0.573713 0.852573
vt 0.573713 0.852573
vt 0.647427 0.852573
vt 0.426287 0.852573
vt 0.721140 0.852573
vt 0.500000 0.852573
vn 0.739971 0.387837 0.549568
vn 0.739787 0.387602 0.549981
vn 0.752877 0.404769 0.518979
vn -0.752879 0.404767 0.518977
vn -0.739789 0.387601 0.549979
vn -0.739973 0.387836 0.549567
vn -0.825876 -0.159971 0.540684
vn -0.892779 -0.229524 0.387640
vn -0.821482 -0.156055 0.548465
vn 0.825876 -0.159970 0.540683
vn 0.821483 -0.156055 0.548464
vn 0.892779 -0.229523 0.387639
vn 0.739970 0.387837 -0.549569
vn 0.752876 0.404768 -0.518979
vn 0.739787 0.387602 -0.549982
vn -0.739972 0.387836 -0.549567
vn -0.739789 0.387601 -0.549980
vn -0.752878 0.404767 -0.518978
vn -0.821482 -0.156056 -0.548465
vn -0.892778 -0.229524 -0.387641
vn -0.825875 -0.159971 -0.540684
vn 0.821483 -0.156056 -0.548464
vn 0.825876 -0.159971 -0.540683
vn 0.892779 -0.229524 -0.387640
vn -0.814869 -0.150262 0.559831
vn -0.814869 -0.150262 0.559831
vn -0.814868 -0.150262 -0.559831
vn -0.814868 -0.150262 -0.559831
vn 0.814869 -0.150262 -0.559831
vn 0.814869 -0.150262 -0.559831
vn 0.814869 -0.150261 0.559830
vn 0.814869 -0.150261 0.559830
vn 0.739145 0.386780 -0.551422
vn 0.739145 0.386780 -0.551422
vn -0.739147 0.386779 -0.551420
vn -0.739147 0.386779 -0.551420
vn -0.739147 0.386779 0.551419
vn -0.739147 0.386779 0.551419
vn 0.739145 0.386781 0.551421
vn 0.739145 0.386781 0.551421
s 1
g pPlatonic1
usemtl initialShadingGroup
f 14/17/1 11/13/2 3/3/3
s 2
f 3/3/4 13/15/5 14/17/6
s 3
f 8/9/7 5/5/8 7/8/9
s 4
f 10/12/10 7/8/11 5/5/12
s 5
f 12/14/13 3/3/14 11/13/15
s 6
f 12/14/16 13/16/17 3/3/18
s 7
f 9/11/19 5/5/20 8/10/21
s 8
f 9/11/22 10/12/23 5/5/24
s 3
f 4/4/25 8/9/7 7/8/9 1/1/26
s 7
f 6/6/27 9/11/19 8/10/21 4/7/28
s 8
f 6/6/29 2/2/30 10/12/23 9/11/22
s 4
f 1/1/31 7/8/11 10/12/10 2/2/32
s 5
f 6/6/33 12/14/13 11/13/15 2/2/34
s 6
f 6/6/35 4/7/36 13/16/17 12/14/16
s 2
f 14/17/6 13/15/5 4/4/37 1/1/38
s 1
f 2/2/39 11/13/2 14/17/1 1/1/40
